<svg id="Ebene_1" data-name="Ebene 1" xmlns="http://www.w3.org/2000/svg" viewBox="0 0 752.38 613.87"><defs><style>.cls-1{fill:none;stroke:#707070;stroke-miterlimit:10;}</style></defs><title>Robin_Adlung_Panda_outline_707070</title><g id="Ebene_2" data-name="Ebene 2"><path class="cls-1" d="M248,219.32a98.46,98.46,0,0,1,82.44,44.85C274,297.51,227.35,345.39,194,401.77c-46.07-29.7-58.8-90.92-29.09-137,18.18-27.88,49.7-44.85,83-45.46Zm0-24.25c-67.89,0-123.65,55.16-123.65,123a122.73,122.73,0,0,0,79.4,115.17,361.94,361.94,0,0,1,158.81-160A123.19,123.19,0,0,0,248,195.07Z" transform="translate(-123.81 -194.57)"/><path class="cls-1" d="M752.27,219.92c54.55,0,98.8,44.85,98.8,99.41a99.1,99.1,0,0,1-50.31,86.07A386.71,386.71,0,0,0,667.41,267.81a98.18,98.18,0,0,1,84.86-47.89Zm0-24.25a123.64,123.64,0,0,0-116.38,81.83c66.68,35.76,120.62,90.92,154,158.81,64.86-20.61,100.62-90.32,80-155.17-16.37-50.92-64.25-85.47-117.59-85.47Z" transform="translate(-123.81 -194.57)"/><path class="cls-1" d="M635.89,780c-12.73,9.09-27.28,14.55-42.43,15.15-15.15,1.21-29.7-2.42-43-9.7a52.38,52.38,0,0,1-17.58-12.73,88.7,88.7,0,0,1-12.73-17A75,75,0,0,1,511,721.08a83.72,83.72,0,0,0,46.07-23.52,24,24,0,0,0,0-31.52c-15.76-15.76-37-24.85-59.4-24.25-22.43-.61-43.64,8.49-59.4,24.25a24,24,0,0,0,0,31.52,83.39,83.39,0,0,0,48.43,23.82,77.06,77.06,0,0,1-9.64,34.37,69.16,69.16,0,0,1-12.73,17,93,93,0,0,1-17.58,12.73c-12.73,7.27-27.88,10.3-42.43,9.7-15.15-1.21-29.7-6.06-41.82-15.15l-4.85,6.06a89.37,89.37,0,0,0,45.46,20.61A86,86,0,0,0,454,800c3.64-1.82,7.88-3.64,11.52-6.06a71.47,71.47,0,0,0,10.91-7.88,93.11,93.11,0,0,0,22.91-28.31q2,3.64,4.36,7.09a78.77,78.77,0,0,0,18.18,19.4,122.92,122.92,0,0,0,10.91,7.88,69.09,69.09,0,0,0,11.52,6.06c15.76,7.27,33.34,9.09,50.31,6.67a89.74,89.74,0,0,0,44.85-20.61ZM457.08,681.8A55.27,55.27,0,0,1,497.69,666c15.15-.61,29.7,5.46,41.22,15.76A60.56,60.56,0,0,1,457.08,681.8Z" transform="translate(-123.81 -194.57)"/><g id="Auge_Links" data-name="Auge Links"><path class="cls-1" d="M314.64,667.26c-16.37,0-27.88-6.06-36.37-12.12-21.82-17-33.34-51.52-29.7-87.89,3-32.13,17-109.71,76.37-131.53,24.25-9.09,50.31-4.85,72.74,10.91,26.06,18.18,42.43,49.7,42.43,80,0,47.89-51.52,119.41-98.8,136.38A90,90,0,0,1,314.64,667.26ZM351,455.11a56.32,56.32,0,0,0-17.58,3c-46.07,17-57.58,83.65-60.61,110.92-3,27.88,5.46,54.55,20.61,66.68q15.46,11.82,40,3.64c37-13.34,83-75.77,83-113.35,0-23-12.73-46.07-32.13-60C373.43,458.74,362.52,455.11,351,455.11Z" transform="translate(-123.81 -194.57)"/></g><g id="Auge_Rechts" data-name="Auge Rechts"><path class="cls-1" d="M675.9,664.83A108.21,108.21,0,0,1,662,663.62,54.65,54.65,0,0,1,648.62,660c-47.28-17-98.8-87.89-98.8-136.38.61-32.13,16.37-61.22,42.43-80A76.56,76.56,0,0,1,665,433.29c59.4,21.82,73.34,98.8,76.37,131.53,3.64,34.55-6.67,67.28-26.67,84.86C705,659.38,690.44,664.83,675.9,664.83ZM639.53,452.68c-11.52,0-23,4.24-32.73,10.91a77,77,0,0,0-32.13,60c0,37.58,45.46,100,83,113.35a45.41,45.41,0,0,0,9.7,2.42,35.9,35.9,0,0,0,32.73-7.88c13.94-12.73,21.21-38.79,18.79-64.86-3-27.88-14.55-94-60.61-110.92-6.67-1.82-12.73-3-18.79-3Z" transform="translate(-123.81 -194.57)"/></g></g></svg>