<svg xmlns="http://www.w3.org/2000/svg" viewBox="0 0 123.86 101.01"><title>Robin_AdlungPanda</title><g id="Ebene_2" data-name="Ebene 2"><g id="Wortmarke"><g id="Panda"><path id="OhrL" d="M20.35,4A16.48,16.48,0,0,1,34,11.36,63.61,63.61,0,0,0,11.46,34.07,16.35,16.35,0,0,1,20.35,4Zm0-4a20.35,20.35,0,0,0-7.21,39.38A59.46,59.46,0,0,1,39.33,13a20.35,20.35,0,0,0-19-13Z"/><path id="OhrR" d="M103.51,4a16.36,16.36,0,0,1,8,30.6,63.74,63.74,0,0,0-22-22.74,16.4,16.4,0,0,1,14-7.86m0-4A20.36,20.36,0,0,0,84.34,13.5a59.49,59.49,0,0,1,25.39,26.23A20.35,20.35,0,0,0,103.51,0Z"/><path id="Nase" d="M61.54,77.59a9.86,9.86,0,0,1,6,1.91.87.87,0,0,1,0,1.37,10.39,10.39,0,0,1-12,0,.87.87,0,0,1,0-1.37,9.86,9.86,0,0,1,6-1.91Zm0-4a13.63,13.63,0,0,0-9,3.21,4.55,4.55,0,0,0,0,6.77,14.24,14.24,0,0,0,18,0,4.55,4.55,0,0,0,0-6.77,13.63,13.63,0,0,0-9-3.21Z"/><path id="Mundwinkel" d="M84.89,97.27a14.77,14.77,0,0,1-7.43,3.43,15.26,15.26,0,0,1-8.31-1.08,15.9,15.9,0,0,1-1.93-1,18.18,18.18,0,0,1-1.76-1.26,15.08,15.08,0,0,1-3-3.22,11.81,11.81,0,0,1-.76-1.22A12.33,12.33,0,0,1,61,94.19,14.7,14.7,0,0,1,58,97.43a15.56,15.56,0,0,1-1.76,1.29,17.62,17.62,0,0,1-1.93,1A15.42,15.42,0,0,1,46,100.86a14.9,14.9,0,0,1-7.54-3.42l.82-1a13.28,13.28,0,0,0,6.93,2.48,13,13,0,0,0,7-1.55,14.87,14.87,0,0,0,1.52-1A15,15,0,0,0,56,95.2a12.4,12.4,0,0,0,3.72-8.86c0-.18,0-.36,0-.54h4c0,.2,0,.4,0,.6a12.36,12.36,0,0,0,1.55,6,11.8,11.8,0,0,0,2.12,2.81,13.73,13.73,0,0,0,1.34,1.19,15,15,0,0,0,1.52,1A13.19,13.19,0,0,0,77.29,99a13.4,13.4,0,0,0,7-2.47Z"/><g id="Auge_Links" data-name="Auge Links"><path d="M31.35,77.8a9.49,9.49,0,0,1-6-2c-3.6-2.82-5.53-8.52-4.93-14.52.54-5.32,2.84-18.07,12.61-21.66a12.81,12.81,0,0,1,12,1.74,16.61,16.61,0,0,1,7,13.19c0,7.95-8.54,19.7-16.32,22.46A13.24,13.24,0,0,1,31.35,77.8Zm6.06-35a8.54,8.54,0,0,0-3,.53c-7.66,2.81-9.55,13.74-10,18.3s.91,9,3.42,11c1.7,1.34,3.93,1.53,6.6.59C40.58,71,48.11,60.73,48.11,54.52a12.5,12.5,0,0,0-5.31-9.91A9.39,9.39,0,0,0,37.41,42.82Z"/></g><g id="Auge_Rechts" data-name="Auge Rechts"><path d="M91,77.41a12,12,0,0,1-2.27-.22,15,15,0,0,1-2.16-.6C78.74,73.83,70.2,62.08,70.2,54.13a16.61,16.61,0,0,1,7-13.19,12.81,12.81,0,0,1,12-1.74C99,42.8,101.32,55.55,101.85,60.87c.57,5.68-1.09,11.06-4.35,14A9.48,9.48,0,0,1,91,77.41Zm-6.06-35a9.39,9.39,0,0,0-5.39,1.79,12.5,12.5,0,0,0-5.31,9.91c0,6.21,7.53,16.51,13.66,18.69a11,11,0,0,0,1.58.44,5.9,5.9,0,0,0,5.37-1.32c2.27-2.07,3.5-6.36,3.07-10.67-.46-4.57-2.36-15.49-10-18.3A8.54,8.54,0,0,0,84.9,42.43Z"/></g></g></g></g></svg>