<svg id="Ebene_1" data-name="Ebene 1" xmlns="http://www.w3.org/2000/svg" viewBox="0 0 886 107.2"><title>Robin Adlung Wortmarke</title><g id="Ebene_1-2" data-name="Ebene 1"><g id="r"><rect x="3.7" y="18" width="0.3" height="35.8"/><path d="M27.5,14H3.2C2.1,14,1,14,0,14.1v90.8H4V57.5H27.5C42.6,57.5,55,47.9,55,36.2v-1C55,23.5,42.6,13.9,27.5,14ZM51.3,36.2c0,9.5-10.9,17.5-23.8,17.5H3.7v-36H27.5c12.9,0,23.8,8,23.8,17.5Z" transform="translate(0 0.1)"/><polygon points="30 61.5 26 61.5 51 105 55 105 30 61.5"/></g><path id="B" d="M255.61,58.55C263.61,54.81,269,48,269,40.3v-1c0-11.8-12.4-21.4-27.5-21.3H214v87.1h35.5c15.1,0,27.5-10.3,27.5-23v-1C277,70.08,267.81,60.83,255.61,58.55ZM218,21.7h23.5c12.9,0,23.8,8,23.8,17.5v1c0,9.5-10.9,17.5-23.8,17.5H218Zm55.1,60.2c0,10.5-10.6,19.1-23.6,19.1H218V61.8H249.5c13,0,23.6,8.6,23.6,19.1Z" transform="translate(0 0.1)"/><polygon id="N" points="382 18 382 105 378 100.7 316 28.5 316 105 312 105 312 18 316 23.3 378 95.4 378 18 382 18"/><rect id="I" x="291" y="18" width="4" height="87"/><polygon id="A" points="510 104 506 104 487.21 61 456 61 458 57 485.47 57 470 21.6 434 104 430 104 470 12 510 104"/><path id="D" d="M537,20.6c23.4,0,42.4,17.9,42.4,39.9A38.18,38.18,0,0,1,567,88.6a43.47,43.47,0,0,1-30,11.8H521.6V20.6Zm0-3.7H518v87h19a47.21,47.21,0,0,0,32.5-12.8A42.18,42.18,0,0,0,583,60.4C583,36.5,562.3,16.9,537,16.9Z" transform="translate(0 0.1)"/><polygon id="L" points="642 100 642 104 597 104 597 17 601 17 601 100 642 100"/><path id="U" d="M677.5,107.1c-16.9,0-30.7-11.8-30.7-26.2v-64h4.4v64c0,12,11.8,21.8,26.3,21.8s26.3-9.8,26.3-21.8v-64h4.4v64C708.2,95.4,694.4,107.1,677.5,107.1Z" transform="translate(0 0.1)"/><polygon id="N-2" points="797 17 797 104 793 99.7 731 27.5 731 104 727 104 727 17 731 22.3 793 94.4 793 17 797 17"/><path id="G" d="M886,60.9c0,24-14.4,44-37,44s-41-19.5-41-43.5a44.73,44.73,0,0,1,12-30.75A39.77,39.77,0,0,1,849,17.9,40.52,40.52,0,0,1,876.4,29l-2.6,2.7A36.5,36.5,0,0,0,849,21.6h0c-20.6,0-37.3,17.8-37.3,39.8s16.7,39.8,37.3,39.8c19.33,0,31.71-16.2,33.15-36.3H856v-4Z" transform="translate(0 0.1)"/></g><g id="Ebene_2" data-name="Ebene 2"><path d="M89.6,3.9a16.24,16.24,0,0,1,13.6,7.4A64.37,64.37,0,0,0,80.7,34a16.31,16.31,0,0,1-4.8-22.6A16.76,16.76,0,0,1,89.6,3.9Zm0-4a20.31,20.31,0,0,0-7.3,39.3,59.71,59.71,0,0,1,26.2-26.4A20.32,20.32,0,0,0,89.6-.1Z" transform="translate(0 0.1)"/><path d="M172.8,4a16.36,16.36,0,0,1,8,30.6,63.8,63.8,0,0,0-22-22.7,16.2,16.2,0,0,1,14-7.9Zm0-4a20.4,20.4,0,0,0-19.2,13.5A59.54,59.54,0,0,1,179,39.7,20.33,20.33,0,0,0,172.8,0Z" transform="translate(0 0.1)"/><path d="M153.6,96.4a13,13,0,0,1-7,2.5,12.6,12.6,0,0,1-7.1-1.6,8.64,8.64,0,0,1-2.9-2.1,14.63,14.63,0,0,1-2.1-2.8,12.37,12.37,0,0,1-1.5-5.72,13.81,13.81,0,0,0,7.6-3.88,4,4,0,0,0,0-5.2,14,14,0,0,0-19.6,0,4,4,0,0,0,0,5.2,13.76,13.76,0,0,0,8,3.93,12.71,12.71,0,0,1-1.59,5.67,11.41,11.41,0,0,1-2.1,2.8,15.35,15.35,0,0,1-2.9,2.1,12.86,12.86,0,0,1-13.9-.9l-.8,1a14.74,14.74,0,0,0,7.5,3.4,14.19,14.19,0,0,0,8.4-1.1,17.37,17.37,0,0,0,1.9-1,11.79,11.79,0,0,0,1.8-1.3,15.36,15.36,0,0,0,3.78-4.67q.33.6.72,1.17a13,13,0,0,0,3,3.2,20.28,20.28,0,0,0,1.8,1.3,11.4,11.4,0,0,0,1.9,1,14.88,14.88,0,0,0,15.7-2.3ZM124.1,80.2a9.12,9.12,0,0,1,6.7-2.6,9.67,9.67,0,0,1,6.8,2.6A10,10,0,0,1,124.1,80.2Z" transform="translate(0 0.1)"/><g id="Auge_Links" data-name="Auge Links"><path d="M100.6,77.8a10,10,0,0,1-6-2C91,73,89.1,67.3,89.7,61.3c.5-5.3,2.8-18.1,12.6-21.7a12.74,12.74,0,0,1,12,1.8,16.6,16.6,0,0,1,7,13.2c0,7.9-8.5,19.7-16.3,22.5A14.84,14.84,0,0,1,100.6,77.8Zm6-35a9.29,9.29,0,0,0-2.9.5c-7.6,2.8-9.5,13.8-10,18.3s.9,9,3.4,11q2.55,2,6.6.6c6.1-2.2,13.7-12.5,13.7-18.7a12.57,12.57,0,0,0-5.3-9.9A9.74,9.74,0,0,0,106.6,42.8Z" transform="translate(0 0.1)"/></g><g id="Auge_Rechts" data-name="Auge Rechts"><path d="M160.2,77.4a17.85,17.85,0,0,1-2.3-.2,9,9,0,0,1-2.2-.6c-7.8-2.8-16.3-14.5-16.3-22.5a16.58,16.58,0,0,1,7-13.2,12.63,12.63,0,0,1,12-1.7c9.8,3.6,12.1,16.3,12.6,21.7.6,5.7-1.1,11.1-4.4,14A9.17,9.17,0,0,1,160.2,77.4Zm-6-35a9.7,9.7,0,0,0-5.4,1.8,12.7,12.7,0,0,0-5.3,9.9c0,6.2,7.5,16.5,13.7,18.7a7.49,7.49,0,0,0,1.6.4,5.92,5.92,0,0,0,5.4-1.3c2.3-2.1,3.5-6.4,3.1-10.7-.5-4.6-2.4-15.5-10-18.3a11.77,11.77,0,0,0-3.1-.5Z" transform="translate(0 0.1)"/></g></g></svg>