<svg version="1" xmlns="http://www.w3.org/2000/svg" width="1322.667" height="1322.667" viewBox="0 0 992.000000 992.000000"><path d="M148.9 92.4c-.2.2-3.1.6-6.4.9-3.3.4-6.9.8-8 1.1-16 3.6-23.6 5.7-29.2 8.2-1.7.8-3.5 1.4-4 1.4-1.4 0-22.5 10.9-24.4 12.6-.8.8-1.9 1.4-2.3 1.4-.4 0-1.2.5-1.9 1-.7.6-4.3 3.4-8.2 6.2-9.9 7.4-26.1 23.7-32.5 32.8-1.3 1.9-2.8 3.9-3.2 4.5-5.4 6.8-15.5 26.8-19.3 38-1.5 4.4-3 8.7-3.3 9.5-.7 1.9-.9 2.8-1.6 6.5-.3 1.6-.9 4.3-1.2 6-.4 1.6-.8 3.9-1 5-.1 1.1-.3 2-.4 2-1.3 0-2.1 36.3-.9 44 .5 3.3 1.1 8 1.5 10.5.3 2.5.8 4.8 1 5.1.2.4.6 2.4 1 4.5.3 2.2 1 4.7 1.5 5.6.5.9.9 2.3.9 3.1 0 .8.8 3.2 1.7 5.3.9 2.2 1.8 4.3 1.9 4.9 1.2 5.9 17.1 35.5 19.5 36.3.5.2.9 1 .9 1.8s.7 1.7 1.5 2c.8.4 1.5 1.2 1.5 2C34 356 56.5 379 61.9 383c8.3 6.1 14.9 10.4 22 14.4 8.2 4.5 20.9 10.2 21.5 9.5.2-.2 2.3-4.2 4.8-8.9 7-13.2 9.6-17.8 16.1-28 3.3-5.2 6.5-10.5 7.1-11.7.6-1.3 1.4-2.3 1.9-2.3.4 0 .7-.6.7-1.4 0-.8.3-1.6.8-1.8.4-.2 3.4-4.1 6.6-8.8 3.3-4.7 6.5-9.2 7.2-10 .8-.8 5.3-6.5 10.1-12.5 4.8-6.1 9.2-11.5 9.8-12.1.5-.6 4.6-5.1 9-10 8.8-9.6 23.6-24.4 31.5-31.4 2.8-2.5 6.6-5.9 8.4-7.5 1.8-1.7 5-4.4 7.1-6 2-1.7 4.3-3.5 5-4.2 3.3-3.1 27.1-20.5 36-26.3 5.5-3.6 10.6-7.1 11.3-7.7.7-.7 1.8-1.3 2.4-1.3.5 0 2.4-1 4.1-2.3 1.8-1.2 4.1-2.7 5.2-3.3 1.1-.6 4.9-2.7 8.5-4.6 3.6-2 8.5-4.7 11-6 3.3-1.8 4.4-2.9 4.2-4.3-.8-5-14.6-29.7-21.2-37.9-9.5-11.9-19.5-22.1-28-28.7-2.5-1.8-4.7-3.7-5-4-2.1-2.6-24.1-15.1-34-19.2-5.2-2.2-10.4-4.1-11.5-4.3-.5-.1-2.9-.9-5.2-1.8-2.4-.8-4.3-1.3-4.3-1.1 0 .3-1.2 0-2.6-.6-1.5-.5-4.3-1.2-6.3-1.5-4-.7-6.3-1.2-7.1-1.4-.3-.1-1.6-.3-3-.5-1.4-.1-2.7-.3-3-.5-.7-.4-33.7-.9-34.1-.6zm38.6 34c15.4 3.2 29.9 9 46.5 18.7 10.6 6.3 30.1 25.1 36.3 35.1 2 3.2 2.1 3.8.7 3.8-.6 0-3.8 1.8-7.1 4s-6.2 4-6.4 4c-.5 0-9.6 6.1-10.5 7-.3.3-4.1 3-8.5 6-10.8 7.4-28.3 20.7-31.5 24-.3.3-3.2 2.7-6.5 5.5-8.6 7.1-14.1 12.3-28.9 27-15.6 15.6-18.2 18.4-35.6 39.2-2.6 3.1-19.1 25.1-22 29.3-1.3 1.9-2.9 3.8-3.5 4.2-.6.5-.6.8 0 .8s.6.3 0 .8c-.6.4-2.8 3.4-5 6.7-4.1 6.2-4.7 7.1-10.3 16.7l-3.3 5.7-4.2-2.9c-21.7-14.7-40.8-40.5-49.1-66.5-2.8-8.9-3.2-10.5-5-22-1.3-7.9-1.4-32.1-.2-38 .4-1.7 1.1-5.5 1.7-8.5 6-30 26.1-60.3 52.1-78.6 11-7.8 28.3-16.5 35.7-17.9 1.1-.2 2.6-.7 3.1-1 1.1-.7 1.1-.7 12-2.9 10.8-2.2 11.1-2.2 27-2 8.7.1 17.7.9 22.5 1.8zM813.8 92.5c-.2.2-2.5.5-5.3.9-4.4.5-9.6 1.4-17.4 3-9.1 1.9-26.6 8.4-36.1 13.3-6 3.2-14.9 8.3-16.5 9.5-5.6 4.5-8.9 6.8-9.6 6.8-.9 0-23.3 22-26.9 26.5-11.4 14-27.2 43.8-25.6 48.1.4.9.9 1.4 1.3 1.1.3-.4 1.1-.3 1.7.2.6.5 2.7 1.8 4.6 2.8 6.3 3.6 26.5 15.7 27 16.3.3.3 3 2.1 6 4s5.7 3.7 6 4.1c.3.4 2.1 1.7 4 3 4.6 3.2 15.4 11.1 16 11.8.3.4 3 2.5 6 4.8s6.9 5.3 8.5 6.8c1.7 1.4 5.5 4.7 8.5 7.3 7.4 6.3 38.4 37.4 44 44.1 2.5 3 5 5.9 5.5 6.5.6.6 2.8 3.3 5 6.1 2.2 2.7 4.2 5.2 4.5 5.5.9.8 12.3 16.3 14.9 20 1.3 1.9 2.7 3.7 3 4 .8.5 10.5 15.9 18 28.3 5.3 8.9 13.6 23.9 15.9 28.9 1.9 4.4 2.2 4.4 8.1 1.8 2.4-1.1 4.7-2 5.1-2 1.6 0 14.3-6.2 21.6-10.5 7.5-4.5 21.2-14.3 25-17.9 1.2-1.2 3-2.8 4-3.7 7.3-6.1 19.9-21.7 27.1-33.4 5.1-8.2 12.2-22.5 13.8-27.5.1-.3 1.5-5 3.3-10.5 1.7-5.5 3.4-11.6 3.7-13.5 1.1-6.4 1.3-7.5 1.6-7.5 1.5 0 1.9-40 .4-49-2.1-12.6-2.4-14.2-3.5-16.9-.5-1.5-.8-2.6-.5-2.6.2 0-.1-1.5-.6-3.3-9.1-28-21.3-48.9-39.7-67.5-12.2-12.4-17.4-16.8-28.6-24.1-13.1-8.5-35.4-18.5-46.2-20.5-1-.2-3.7-.9-5.9-1.5s-5.6-1.3-7.5-1.6c-1.9-.2-6.1-.9-9.3-1.3-5.2-.8-34.2-1.4-34.9-.7zm24 32c19 1.3 41.5 8.1 55.6 16.8 1.1.7 4 2.4 6.4 3.9 10.2 6.2 32.3 27 34.1 32.1.2.6.9 1.7 1.5 2.4 2.9 3.2 3.6 4.3 3.6 5.2 0 .5.3 1.1.8 1.3 1 .4 7.5 12.9 10.2 19.8 2.6 6.4 7.1 22 6.4 22-.3 0-.2.6.3 1.2.4.7.9 2 1 2.8 2.9 17.3 2.2 37.7-1.8 53.5-7.5 29.8-25.2 56.8-48.4 73.9-2.2 1.7-4.2 3.2-4.5 3.5-.3.4-1.6 1.2-3 2s-3.5 2-4.7 2.8c-2.1 1.4-2.3 1.2-5.3-3.9-4.6-7.8-4.7-8-15.4-24.3-5.4-8.2-10.2-15.2-10.7-15.3-.5-.2-.9-.8-.9-1.3 0-.9-16.8-22.7-22.5-29.4-20.4-23.6-33.8-37.1-55.7-56.6-7.2-6.4-29.3-24-36.3-28.9-2.8-1.9-5.4-3.8-6-4.3-.5-.4-5.7-3.9-11.5-7.7-5.8-3.8-11.1-7.4-11.7-8-.7-.6-1.3-.8-1.3-.4s-.3.5-.6.1c-2-2 18.4-26 29.6-34.9 22-17.3 48.6-27.3 74.8-28.3 4.6-.1 8.6-.5 8.9-.9.3-.3 1-.3 1.5 0s3 .7 5.6.9zM671.4 399.9c-.2.2-2.3.6-4.6.8-4 .3-7.6.9-8.8 1.3-.3.1-.8.2-1.2.1-.4 0-2.9.6-5.5 1.5-2.7.9-5.2 1.7-5.8 1.8-.5.2-2.7 1-4.9 1.9-2.1.9-4 1.7-4.1 1.7-1.2 0-16.1 9.2-21.4 13.2-10.2 7.8-23.5 22-30.4 32.6-6.4 9.7-11.4 19.1-10.9 20.4.1.5-.3.8-.8.8-.6 0-1 1-1 2.3 0 1.3-.5 2.8-1.1 3.4-.8.8-5.5 15.8-5.8 18.8-.1.3-.1.6-.2.7-1 3.5-2.1 14.4-2.4 23.3-.1 7.6 1.5 20.6 3.8 30.1 1 4.1 5.8 18.7 6.5 19.8.3.6.7 1.5.8 2.1.1.5 1.8 4.5 3.7 8.8 2 4.2 3.6 7.8 3.5 8-.1.4 14.4 25.2 15.1 25.7.3.3 1.9 2.5 3.5 5 3.3 5.1 12.6 17.5 17.7 23.5 3.7 4.4 28.4 29.1 31.5 31.5 7 5.6 19.3 14 20.2 14 .7 0 1.2.4 1.2.8 0 2.7 32 15.4 42.2 16.7 7.2.9 15.2 1.7 16.3 1.7 4.5-.3 13.4-1.2 15-1.6 11.2-2.4 21.2-6.8 30.1-13.1 6.4-4.6 20.4-19.1 20.4-21.2 0-.6.3-1.3.8-1.5 1-.4 6.4-8.8 5.6-8.8-.3 0 .4-1.4 1.6-3 1.2-1.7 2.3-3.7 2.4-4.5.1-.8.5-1.8.9-2.1.4-.4.7-1.6.7-2.6s.5-1.8 1-1.8c.6 0 .9-.3.8-.8-.2-.6 1.4-6.3 2.9-10.2.3-.8.8-2.4 1-3.5.1-1.1 1-5.1 1.8-8.8 3.5-15.5 3.8-41.4.8-61.2-.3-2.2-.7-4.9-.9-6-.1-1.1-.3-2-.4-2-.1 0-.3-1.1-.4-2.5-.5-4.6-1.8-11.4-2.3-12.3-.3-.4-.7-2.6-.9-4.7-.3-2.2-2.1-9.5-4-16.2-1.9-6.8-3.7-13-3.9-13.8-.2-.8-.9-2.9-1.6-4.5-.7-1.7-1.3-3.2-1.4-3.5-.7-2.6-1.9-6-3-8.5-5.2-11.4-12.1-25.6-14.3-29-1.4-2.2-2.4-4.2-2.3-4.4.2-.2-.1-.7-.6-1-.5-.3-2.9-3.5-5.5-7.1-21-29.6-50.9-48.3-82.4-51.5-7.4-.8-18.4-1.1-19-.6zm7.1 32.1c1.2-.5 2.5-.7 2.7-.5.2.2 3 .6 6.3.9 3.3.3 6.9.8 8 1 8.2 1.8 23.6 9.2 31 14.9 5.7 4.5 16.6 15.8 20.1 20.9 1.6 2.4 3.2 4.4 3.7 4.6.4.2.7.9.7 1.5s.6 1.8 1.4 2.6c3.8 4.3 17.9 35.4 18.9 41.9.1.9.5 2.1.9 2.7.5.9 2.2 6.6 3.4 11.5.2.8 1 4.4 1.9 8 .9 3.6 1.8 7.6 2 9 .2 1.4.6 3.6.9 5 .8 3.7 2.6 15.7 3.3 21.5 1.3 10.9.6 40.6-1.1 43.3-.2.4-.7 2.3-1 4.4-.5 3.1-1.7 7.2-4.2 14.8-.3.8-.5 1.6-.4 1.8 0 .1-1.9 3.9-4.2 8.4-3 5.7-6.5 10.5-11.3 15.3-10.2 10.3-20.3 14.5-34.1 14.1-7.4-.2-16.4-1.8-20.9-3.7-1.1-.4-4.5-1.8-7.5-3-3-1.3-5.7-2.6-6-2.9-.3-.3-2-1.2-3.7-1.9-1.8-.8-3.3-1.7-3.3-2.2 0-.5-.6-.9-1.4-.9-.8 0-2.1-.6-2.8-1.3-.7-.7-3.1-2.6-5.3-4.2-9.5-7-23-19.7-31.7-30-1.8-2.1-4.4-5-5.8-6.5-1.4-1.5-2.5-2.8-2.5-3.1-.1-.7-9-12.4-9.7-12.7-.5-.2-.8-.7-.8-1.2 0-.4-1.8-3.5-4-6.8s-4-6.3-4-6.7c0-.5-.6-1.6-1.4-2.4-1.5-1.8-12.7-23.5-13-25.4-.1-.7-1.2-3.9-2.5-7.1-1.9-5.1-3.8-12-5.7-21.1-1-4.6-.4-21 .9-27 1.5-6.5 4.1-15.4 5.2-18.3.8-1.8 1.4-3.5 1.4-3.7 0-.3 1.2-2.7 2.7-5.3 12.6-22.9 31.6-40 51.9-46.5 7.2-2.4 17.9-4.5 18.3-3.6.2.5 1.4.4 2.7-.1zM287.8 403.5c-.2.1-2.1.5-4.3.8-7.3 1.1-21.6 5.7-29.4 9.6-8.7 4.3-12.4 6.3-13.1 7.2-.3.3-2.7 2.1-5.5 3.9-5.6 3.9-18.1 15.9-24.2 23.5-4.4 5.5-13.2 18.5-15.1 22.5-.7 1.4-3 5.8-5.1 9.9-2.2 4.1-4.7 9.5-5.7 12s-2.3 6.1-3.1 7.8c-.7 1.8-1.3 3.5-1.3 3.8 0 .3-.7 2.2-1.6 4.3-1.4 3.4-7 22-8 26.7-.2 1.1-.9 4.5-1.5 7.5-.7 3-1.3 6.4-1.5 7.5-.1 1.1-.3 2-.4 2-.4 0-3.9 23.4-4.5 30-.6 5.8-.6 28.2 0 34 .3 3.6 1.3 10.8 1.9 13.8.2.7.6 3 1.1 5.2 1.6 8.2 6.9 22.8 11.6 32.1 11.7 22.9 28.4 37.8 50.1 44.4 7.1 2.2 9.4 2.4 22.3 2.3 16-.1 16.1-.1 21-1.4 2.2-.6 4.7-1.2 5.6-1.4 3.1-.6 11.7-3.3 13.5-4.3 1.1-.5 4.8-2.4 8.4-4.2 6-2.9 15.8-8.7 17-10 .3-.3 2.4-1.8 4.8-3.4 16.5-11.2 40.3-35.9 56.4-58.6 10.1-14.3 24.3-40 27.9-50.5.8-2.2 1.8-4.3 2.4-4.7.5-.4.7-.8.3-.8-.3 0 .6-3.6 2.2-8s2.7-8 2.5-8c-.2 0 .1-1.6.7-3.6 2.4-9 3-14.1 3-26.9 0-11-.4-14.7-2.3-24-1-4.7-3.4-13.3-4.6-16.5-.3-.8-.7-2-.8-2.6-.3-1.3-5.1-11.8-7.2-15.9-2.6-5-12.1-19.1-15.5-23.1-9.1-10.5-20.4-20.4-32.1-27.8-5.9-3.8-21.7-11-21.7-9.9 0 .3-.6.1-1.2-.5-.7-.5-3.8-1.5-6.8-2.1-3-.6-6.6-1.4-8-1.7-2.6-.6-27.6-1.4-28.2-.9zm30.7 34.2c24 7 46.6 27.3 57.4 51.6 3.1 7 4.3 9.7 4.7 11.2.8 3.1 3.4 14.4 3.9 17 .9 5.1.7 20.3-.4 22.3-.6 1.1-.8 2.2-.5 2.5.3.3 0 2.5-.6 4.8-.7 2.4-1.4 5.1-1.6 5.9-2.1 8.6-9.8 25.9-17.5 39.5-5.6 9.7-18.4 28.5-23 33.6-1.3 1.5-5.1 5.7-8.4 9.5-9.1 10.2-19.8 20.4-21.6 20.4-.6 0-.8.4-.5.8.3.5-.6 1.5-1.9 2.2-1.4.7-2.5 1.7-2.5 2.2 0 .4-.6.8-1.4.8-.8 0-1.6.4-1.8.9-.5 1.3-13.7 9.6-19.3 12-2.7 1.2-5.9 2.6-7 3.1-10.8 4.7-29.2 6.2-39.5 3.1-4.4-1.3-13.9-7-17.2-10.2-7.7-7.6-16-21.7-19.4-32.9-3.4-11.5-4.6-20.7-4.8-36.5 0-9.4.3-19.7.8-23 .4-3.3 1-7.1 1.1-8.5.3-2.9 2.2-13.4 3-17 .3-1.4.8-3.9 1.1-5.5.2-1.7 1-4.8 1.6-7 .6-2.2 1.3-4.7 1.4-5.7.9-4.5 8.6-26.3 12-33.8 3.9-8.8 12.8-24.3 16.7-29.4 9.1-11.7 25.8-25.7 35-29.3 2.3-.9 4.7-2 5.3-2.5.6-.4 4.5-1.7 8.5-2.7 9.8-2.6 26.4-2.3 36.4.6zM481.7 681.6c-.1.1-2.4.5-5.2.8-5.2.7-9 1.3-9 1.6 0 .1-1.3.4-2.8.6-8.5 1.4-26.2 9.6-37.2 17.2-17.1 11.9-23.1 30.3-15.5 47.6 1.8 4 11.6 15.6 13.2 15.6.3 0 3 1.6 5.9 3.6 3 2 8.8 5.2 12.9 7.1 10.5 4.9 11 5.1 16 6.4 2.5.6 5.2 1.4 6 1.7.8.3 3 .7 4.9.9 5 .7 8.1 2.1 7.6 3.5-.2.7-.6 3.3-.9 5.8-1.1 9.5-1.7 12.3-4.2 19.8-6.7 20-20.1 38.7-36.9 51.3-22.2 16.6-54.7 23.2-82.2 16.8-7.7-1.8-20.2-6-20.8-7-.4-.5-1.3-.9-2.2-.9-1.6 0-13.6-7-14.1-8.3-1.1-2.3-8.2 3.4-8.2 6.7 0 1.3 7.7 7.3 13.7 10.8 16.1 9.1 26.6 13 44.3 16.4 5.4 1 30.4 1.3 34.7.4 2.1-.5 5.4-1.1 7.3-1.3 1.9-.3 6-1.3 9-2.1 3-.9 6.2-1.8 7-2 6-1.6 23.3-10.1 28.7-14.2 1.7-1.3 3.5-2.4 3.8-2.4.4 0 1.2-.6 1.9-1.3.8-.6 3.5-3 6.1-5.2 10.7-9 21.3-21.2 25.4-29.2 1.1-2.3 2.4-4.4 2.9-4.7.5-.3 2.1 1.7 3.7 4.5 1.6 2.7 3.2 4.9 3.6 4.9.4 0 1.1.9 1.4 2.1 1.8 5.5 33.9 33.9 38.4 33.9.6 0 1.1.4 1.1.8 0 .7 5.2 3.1 6.7 3 .3 0 .9.4 1.2.9.6 1 11.6 5.5 16.6 6.8 1.7.5 3.2.9 3.5 1 2.7.9 6 1.7 8.5 2 1.7.2 3 .4 3 .5 0 .3 6.7 1.1 13 1.5 3.9.2 7.2.4 7.5.5.3.2 1 .1 1.5 0 .6-.1 3.9-.3 7.5-.5 3.6-.1 9.2-.8 12.5-1.5 3.3-.7 6.5-1.3 7-1.4.6-.1 1.6-.5 2.3-.9.6-.5 1.2-.6 1.2-.3s1.9-.2 4.3-1c2.3-.9 4.7-1.7 5.2-1.8.6-.1 4.9-2 9.7-4.3 8.9-4.2 15.2-8.1 22.6-14 3.5-2.8 4-3.7 3-4.8-.7-.8-1.9-2.1-2.6-3-1.2-1.4-1.8-1.2-5.5 1.4-6.5 4.4-25 13-28.2 13.1-.3 0-.6 0-.7.1-7.8 2.3-13.8 3.1-26.8 3.1-12.9.1-17.9-.2-23-1.5-.8-.2-3.3-.7-5.5-1.2-6.3-1.3-25.5-9.2-25.5-10.5 0-.4-.8-1-1.7-1.4-2.8-.9-7.6-4.2-12.4-8.6-1.5-1.4-4-3.7-5.5-5.1-4.2-3.8-8.8-9-12.7-14.5-3.3-4.7-10.8-18.5-11.6-21.5-.2-.8-1.2-3.7-2.2-6.6-1-2.8-2-6.7-2.3-8.5-.3-1.8-.8-4.4-1-5.8-1-5.5-1.4-11.7-.8-12.7.4-.5 2.6-1.3 4.9-1.7 12.5-1.9 31.8-10.5 45.2-20.1 4.6-3.3 10.2-9.9 12.7-15.1 2.3-4.9 2.9-7.3 3-14.4.2-8.9-1.3-14.3-6.1-21.5-2.2-3.2-9.5-10.4-10.7-10.5-.5 0-1.6-.8-2.6-1.8-3.8-3.6-16-9.8-28.4-14.3-4.3-1.5-7.8-2.6-7.8-2.4 0 .3-1 .1-2.2-.4-3.8-1.4-13.6-2.4-25.6-2.6-6.2-.1-11.3 0-11.5.1zm25.3 32.9c10.6 1.7 21.3 6 30.6 12.2 8.1 5.3 7.9 9.8-.8 15.4-6.8 4.5-16.3 8.6-23.8 10.4-11.3 2.7-26.4 2.9-37.1.5-10.8-2.3-22.1-7.1-28.4-11.8-8.1-6.2-7-10.6 4-16.8 9.1-5 15.6-7.4 25.4-9.4 8.5-1.6 22-1.9 30.1-.5z"/></svg>