<svg xmlns="http://www.w3.org/2000/svg" viewBox="0 0 739.24 735.73"><defs><style>.cls-1{fill:none;stroke:#fed062;stroke-miterlimit:10;stroke-width:15px;}</style></defs><title>bElement 1</title><g id="Ebene_2" data-name="Ebene 2"><g id="Ebene_1-2" data-name="Ebene 1"><path class="cls-1" d="M729.05,412.49,385.21,722.24a23.3,23.3,0,0,1-31.18,0L10.19,412.49a8.08,8.08,0,0,1,5.41-14.08H129.85a23.3,23.3,0,0,0,23.3-23.3V18.3a10.8,10.8,0,0,1,10.8-10.8H575.3a10.8,10.8,0,0,1,10.8,10.8V375.12a23.3,23.3,0,0,0,23.3,23.3H723.65A8.08,8.08,0,0,1,729.05,412.49Z"/></g></g></svg>